:FULLY-SPECIFIED
:FORCE-ALL-JOINTS-BE-3DOF
:DEGREES
81
root 9.31218 16.3883 -25.5435 3.96119 -7.95773 2.48264
lfemur -16.1499 3.02083 -27.2064
ltibia 27.4452 0 0
lfoot -14.9736 9.53567 0
ltoes -0.885444 0 0
rfemur -21.4594 0.168166 17.8716
rtibia 62.5922 0 0
rfoot -15.5845 -12.468 0
rtoes -11.8908 0 0
lowerback -4.77811 -0.986839 -3.7175
upperback -1.42723 -1.17862 2.45194
thorax 1.33521 -0.595434 4.55365
lowerneck -22.4062 -4.05558 -11.417
upperneck 19.2965 -4.64247 11.6588
head 10.4368 -1.61273 5.3947
lclavicle -1.79688e-14 -3.33333e-21 0
lhumerus -27.7486 -12.2776 87.2461
lradius 25.7585 0 0
lwrist 0.413178 0 0
lhand -2.16374 -17.0938 0
lfingers 7.12502 0 0
lthumb 23.5093 11.4107 0
rclavicle -1.79688e-14 -3.33333e-21 0
rhumerus -43.7041 13.5583 -89.0896
rradius 40.2254 0 0
rwrist -22.073 0 0
rhand -31.0364 -23.9735 0
rfingers 7.12502 0 0
rthumb -4.31833 -53.9097 0
82
root 9.3196 16.3801 -25.4302 3.89524 -7.7663 2.60949
lfemur -15.6081 2.81906 -27.409
ltibia 27.3979 0 0
lfoot -15.2193 9.57671 0
ltoes -1.67118 0 0
rfemur -22.4258 0.523724 17.8957
rtibia 62.0426 0 0
rfoot -16.2909 -12.6233 0
rtoes -11.6477 0 0
lowerback -4.8435 -1.03238 -3.84661
upperback -1.33637 -1.2305 2.43434
thorax 1.47338 -0.626759 4.60394
lowerneck -22.5967 -4.09674 -11.5189
upperneck 19.479 -4.66942 11.7024
head 10.5456 -1.62287 5.43215
lclavicle -1.82998e-14 -2.13694e-15 0
lhumerus -27.0926 -12.8037 87.1705
lradius 26.3727 0 0
lwrist 1.11327 0 0
lhand -4.39051 -18.8259 0
lfingers 7.12502 0 0
lthumb 21.3709 9.92272 0
rclavicle -1.82998e-14 -2.13694e-15 0
rhumerus -43.6141 13.5548 -88.9728
rradius 40.1513 0 0
rwrist -22.0492 0 0
rhand -31.0766 -24.0598 0
rfingers 7.12502 0 0
rthumb -4.35713 -53.9953 0
83
root 9.32702 16.3719 -25.3169 3.84453 -7.56278 2.72614
lfemur -15.0779 2.6394 -27.5983
ltibia 27.3455 0 0
lfoot -15.4547 9.58339 0
ltoes -2.49318 0 0
rfemur -23.3814 0.885852 17.9105
rtibia 61.4114 0 0
rfoot -16.9171 -12.7549 0
rtoes -11.4617 0 0
lowerback -4.92464 -1.07799 -3.96669
upperback -1.25246 -1.28249 2.41901
thorax 1.61318 -0.658065 4.65116
lowerneck -22.7717 -4.14293 -11.6356
upperneck 19.6571 -4.70267 11.757
head 10.6516 -1.63622 5.47504
lclavicle -1.87621e-14 -4.06404e-15 0
lhumerus -26.4663 -13.352 87.111
lradius 27.0072 0 0
lwrist 1.8436 0 0
lhand -6.66591 -20.6029 0
lfingers 7.12502 0 0
lthumb 19.1857 8.3947 0
rclavicle -1.87621e-14 -4.06404e-15 0
rhumerus -43.5282 13.5334 -88.8533
rradius 40.0565 0 0
rwrist -22.0061 0 0
rhand -31.0928 -24.1131 0
rfingers 7.12502 0 0
rthumb -4.37272 -54.0483 0
84
root 9.33443 16.3637 -25.2037 3.80305 -7.33609 2.82617
lfemur -14.5408 2.48397 -27.7662
ltibia 27.2659 0 0
lfoot -15.7088 9.54757 0
ltoes -3.16628 0 0
rfemur -24.3077 1.2268 17.9174
rtibia 60.7067 0 0
rfoot -17.4997 -12.854 0
rtoes -11.4239 0 0
lowerback -5.01359 -1.12605 -4.06481
upperback -1.18215 -1.33868 2.40787
thorax 1.74345 -0.690921 4.68973
lowerneck -22.8897 -4.19449 -11.7588
upperneck 19.815 -4.74479 11.8055
head 10.7411 -1.65651 5.51419
lclavicle -1.90101e-14 -5.35062e-15 0
lhumerus -25.8821 -13.9007 87.068
lradius 27.6359 0 0
lwrist 2.55662 0 0
lhand -8.68953 -22.1699 0
lfingers 7.12502 0 0
lthumb 17.2421 7.04728 0
rclavicle -1.90101e-14 -5.35062e-15 0
rhumerus -43.4727 13.4963 -88.7345
rradius 39.9566 0 0
rwrist -21.9561 0 0
rhand -31.0748 -24.1233 0
rfingers 7.12502 0 0
rthumb -4.35537 -54.0588 0
85
root 9.34185 16.3555 -25.0904 3.76477 -7.07516 2.90322
lfemur -13.9785 2.35489 -27.9044
ltibia 27.1369 0 0
lfoot -16.0104 9.46108 0
ltoes -3.5053 0 0
rfemur -25.1862 1.51882 17.9179
rtibia 59.9367 0 0
rfoot -18.0752 -12.9112 0
rtoes -11.6259 0 0
lowerback -5.1024 -1.17897 -4.12802
upperback -1.1321 -1.40317 2.40285
thorax 1.85304 -0.726898 4.71409
lowerneck -22.9087 -4.25176 -11.8803
upperneck 19.9369 -4.79835 11.8303
head 10.8001 -1.68749 5.54042
lclavicle -1.86982e-14 -5.56597e-15 0
lhumerus -25.3521 -14.428 87.0421
lradius 28.2328 0 0
lwrist 3.2048 0 0
lhand -10.161 -23.2719 0
lfingers 7.12502 0 0
lthumb 15.8286 6.10104 0
rclavicle -1.86982e-14 -5.56597e-15 0
rhumerus -43.4737 13.4457 -88.6201
rradius 39.8671 0 0
rwrist -21.9118 0 0
rhand -31.0127 -24.0807 0
rfingers 7.12502 0 0
rthumb -4.29536 -54.0172 0
86
root 9.34819 16.3492 -24.9706 3.73796 -6.77838 2.94275
lfemur -13.4103 2.27781 -27.9969
ltibia 26.9823 0 0
lfoot -16.3887 9.29798 0
ltoes -3.46251 0 0
rfemur -26.0233 1.76289 17.9275
rtibia 59.0851 0 0
rfoot -18.6508 -12.9313 0
rtoes -12.1439 0 0
lowerback -5.1892 -1.23588 -4.14029
upperback -1.11709 -1.4761 2.40961
thorax 1.92531 -0.765282 4.72142
lowerneck -22.8037 -4.31976 -12.0148
upperneck 20.0243 -4.86995 11.8371
head 10.8262 -1.73346 5.55715
lclavicle -1.76753e-14 -4.57941e-15 0
lhumerus -24.8956 -14.9287 87.0414
lradius 28.7993 0 0
lwrist 3.80126 0 0
lhand -11.0102 -23.8617 0
lfingers 7.12502 0 0
lthumb 15.0124 5.59617 0
rclavicle -1.76753e-14 -4.57941e-15 0
rhumerus -43.5572 13.3788 -88.5124
rradius 39.7886 0 0
rwrist -21.8624 0 0
rhand -30.872 -23.9426 0
rfingers 7.12502 0 0
rthumb -4.15947 -53.8815 0
87
root 9.35454 16.3429 -24.8508 3.72908 -6.45428 2.94698
lfemur -12.8548 2.25619 -28.0471
ltibia 26.8245 0 0
lfoot -16.8264 9.0596 0
ltoes -3.17651 0 0
rfemur -26.8351 1.98141 17.948
rtibia 58.142 0 0
rfoot -19.1988 -12.9226 0
rtoes -12.92 0 0
lowerback -5.27996 -1.2947 -4.10878
upperback -1.13476 -1.55421 2.42773
thorax 1.96586 -0.804672 4.71562
lowerneck -22.603 -4.39922 -12.1717
upperneck 20.0901 -4.95884 11.8408
head 10.8298 -1.7923 5.5724
lclavicle -1.61876e-14 -2.70936e-15 0
lhumerus -24.5064 -15.4192 87.0673
lradius 29.3563 0 0
lwrist 4.38665 0 0
lhand -11.4635 -24.1338 0
lfingers 7.12502 0 0
lthumb 14.5763 5.36424 0
rclavicle -1.61876e-14 -2.70936e-15 0
rhumerus -43.7074 13.2933 -88.4088
rradius 39.7088 0 0
rwrist -21.7959 0 0
rhand -30.6539 -23.7085 0
rfingers 7.12502 0 0
rthumb -3.94883 -53.6511 0
88
root 9.36088 16.3366 -24.731 3.72943 -6.10701 2.93459
lfemur -12.2924 2.25879 -28.0757
ltibia 26.6395 0 0
lfoot -17.2828 8.77871 0
ltoes -2.7416 0 0
rfemur -27.6176 2.17875 17.9607
rtibia 57.1254 0 0
rfoot -19.7031 -12.8811 0
rtoes -13.8445 0 0
lowerback -5.37853 -1.35598 -4.0553
upperback -1.16604 -1.63652 2.45004
thorax 1.99689 -0.845613 4.70118
lowerneck -22.3452 -4.48404 -12.3351
upperneck 20.1357 -5.05661 11.8382
head 10.8169 -1.85809 5.58392
lclavicle -1.44857e-14 -1.98782e-16 0
lhumerus -24.1593 -15.9101 87.1096
lradius 29.9076 0 0
lwrist 4.95474 0 0
lhand -11.6651 -24.1958 0
lfingers 7.12502 0 0
lthumb 14.3818 5.3129 0
rclavicle -1.44857e-14 -1.98782e-16 0
rhumerus -43.8879 13.1921 -88.3061
rradius 39.6238 0 0
rwrist -21.7225 0 0
rhand -30.4016 -23.4314 0
rfingers 7.12502 0 0
rthumb -3.70525 -53.3783 0
89
root 9.36722 16.3303 -24.6113 3.7303 -5.74074 2.92432
lfemur -11.7036 2.25441 -28.1039
ltibia 26.4032 0 0
lfoot -17.7171 8.48808 0
ltoes -2.2521 0 0
rfemur -28.3668 2.35928 17.9467
rtibia 56.0534 0 0
rfoot -20.1479 -12.8033 0
rtoes -14.8076 0 0
lowerback -5.48876 -1.42027 -4.00167
upperback -1.19184 -1.72205 2.46937
thorax 2.04058 -0.888648 4.68258
lowerneck -22.0687 -4.56815 -12.4892
upperneck 20.1624 -5.15481 11.8263
head 10.7931 -1.9249 5.58943
lclavicle -1.28198e-14 2.70936e-15 0
lhumerus -23.8288 -16.4121 87.1585
lradius 30.4568 0 0
lwrist 5.49928 0 0
lhand -11.759 -24.1555 0
lfingers 7.12502 0 0
lthumb 14.2906 5.34981 0
rclavicle -1.28198e-14 2.70936e-15 0
rhumerus -44.0625 13.0781 -88.2008
rradius 39.53 0 0
rwrist -21.6527 0 0
rhand -30.1586 -23.1644 0
rfingers 7.12502 0 0
rthumb -3.47055 -53.1154 0
90
root 9.37357 16.324 -24.4915 3.72298 -5.35961 2.93485
lfemur -11.0689 2.21183 -28.1525
ltibia 26.0917 0 0
lfoot -18.0885 8.22045 0
ltoes -1.80232 0 0
rfemur -29.0784 2.52738 17.8873
rtibia 54.9439 0 0
rfoot -20.5171 -12.6851 0
rtoes -15.6993 0 0
lowerback -5.61447 -1.48812 -3.96971
upperback -1.19311 -1.80982 2.47854
thorax 2.11914 -0.934323 4.66432
lowerneck -21.8123 -4.64547 -12.6181
upperneck 20.1714 -5.24504 11.8018
head 10.7644 -1.98681 5.58667
lclavicle -1.14403e-14 5.77212e-15 0
lhumerus -23.4895 -16.9359 87.204
lradius 31.0075 0 0
lwrist 6.01402 0 0
lhand -11.8895 -24.1206 0
lfingers 7.12502 0 0
lthumb 14.164 5.38265 0
rclavicle -1.14403e-14 5.77212e-15 0
rhumerus -44.1948 12.9542 -88.0895
rradius 39.4236 0 0
rwrist -21.5965 0 0
rhand -29.968 -22.9604 0
rfingers 7.12502 0 0
rthumb -3.28652 -52.9146 0
